solid Onshape
  facet normal 5.58214e-17 7.34905e-18 -1
    outer loop
      vertex 3.97648 1.46228 2.73185e-16
      vertex 4.03179 1.04222 2.73185e-16
      vertex -0.806392 0.618932 0
    endloop
  endfacet
  facet normal 5.62495e-17 2.45589e-18 -1
    outer loop
      vertex 4.03179 1.04222 2.73185e-16
      vertex 4.05027 0.618932 2.73185e-16
      vertex -0.806392 0.618932 0
    endloop
  endfacet
  facet normal 5.62495e-17 -2.45589e-18 -1
    outer loop
      vertex -0.806392 0.618932 0
      vertex 4.05027 0.618932 2.73185e-16
      vertex 4.03179 0.195646 2.73185e-16
    endloop
  endfacet
  facet normal 5.20173e-17 2.15463e-17 -1
    outer loop
      vertex 3.59524 2.67144 2.73185e-16
      vertex 3.75738 2.28001 2.73185e-16
      vertex -0.806392 0.618932 0
    endloop
  endfacet
  facet normal 5.36972e-17 1.69306e-17 -1
    outer loop
      vertex 3.75738 2.28001 2.73185e-16
      vertex 3.88478 1.87593 2.73185e-16
      vertex -0.806392 0.618932 0
    endloop
  endfacet
  facet normal 5.49685e-17 1.21862e-17 -1
    outer loop
      vertex -0.806392 0.618932 0
      vertex 3.88478 1.87593 2.73185e-16
      vertex 3.97648 1.46228 2.73185e-16
    endloop
  endfacet
  facet normal 4.46683e-17 3.42752e-17 -1
    outer loop
      vertex 2.91403 3.74073 2.73185e-16
      vertex 3.17195 3.4046 2.73185e-16
      vertex -0.806392 0.618932 0
    endloop
  endfacet
  facet normal 4.74856e-17 3.02516e-17 -1
    outer loop
      vertex 3.17195 3.4046 2.73185e-16
      vertex 3.3996 3.04726 2.73185e-16
      vertex -0.806392 0.618932 0
    endloop
  endfacet
  facet normal 4.99415e-17 2.59979e-17 -1
    outer loop
      vertex -0.806392 0.618932 0
      vertex 3.3996 3.04726 2.73185e-16
      vertex 3.59524 2.67144 2.73185e-16
    endloop
  endfacet
  facet normal 3.42752e-17 4.46683e-17 -1
    outer loop
      vertex 1.97927 4.59727 2.73185e-16
      vertex 2.31541 4.33935 2.73185e-16
      vertex -0.806392 0.618932 0
    endloop
  endfacet
  facet normal 3.80378e-17 4.1511e-17 -1
    outer loop
      vertex 2.31541 4.33935 2.73185e-16
      vertex 2.62779 4.05311 2.73185e-16
      vertex -0.806392 0.618932 0
    endloop
  endfacet
  facet normal 4.1511e-17 3.80378e-17 -1
    outer loop
      vertex -0.806392 0.618932 0
      vertex 2.62779 4.05311 2.73185e-16
      vertex 2.91403 3.74073 2.73185e-16
    endloop
  endfacet
  facet normal 2.15463e-17 5.20173e-17 -1
    outer loop
      vertex 0.854684 5.1827 2.73185e-16
      vertex 1.24612 5.02056 2.73185e-16
      vertex -0.806392 0.618932 0
    endloop
  endfacet
  facet normal 2.59979e-17 4.99415e-17 -1
    outer loop
      vertex 1.24612 5.02056 2.73185e-16
      vertex 1.62194 4.82492 2.73185e-16
      vertex -0.806392 0.618932 0
    endloop
  endfacet
  facet normal 3.02517e-17 4.74856e-17 -1
    outer loop
      vertex -0.806392 0.618932 0
      vertex 1.62194 4.82492 2.73185e-16
      vertex 1.97927 4.59727 2.73185e-16
    endloop
  endfacet
  facet normal 7.34897e-18 5.58214e-17 -1
    outer loop
      vertex -0.383106 5.45711 2.73185e-16
      vertex 0.0369582 5.40181 2.73185e-16
      vertex -0.806392 0.618932 0
    endloop
  endfacet
  facet normal 1.21862e-17 5.49685e-17 -1
    outer loop
      vertex 0.0369582 5.40181 2.73185e-16
      vertex 0.450604 5.31011 2.73185e-16
      vertex -0.806392 0.618932 0
    endloop
  endfacet
  facet normal 1.69307e-17 5.36972e-17 -1
    outer loop
      vertex -0.806392 0.618932 0
      vertex 0.450604 5.31011 2.73185e-16
      vertex 0.854684 5.1827 2.73185e-16
    endloop
  endfacet
  facet normal -7.34897e-18 5.58214e-17 -1
    outer loop
      vertex -1.64974 5.40181 2.73185e-16
      vertex -1.22968 5.45711 2.73185e-16
      vertex -0.806392 0.618932 0
    endloop
  endfacet
  facet normal -2.45597e-18 5.62495e-17 -1
    outer loop
      vertex -1.22968 5.45711 2.73185e-16
      vertex -0.806392 5.47559 2.73185e-16
      vertex -0.806392 0.618932 0
    endloop
  endfacet
  facet normal 2.45597e-18 5.62495e-17 -1
    outer loop
      vertex -0.806392 0.618932 0
      vertex -0.806392 5.47559 2.73185e-16
      vertex -0.383106 5.45711 2.73185e-16
    endloop
  endfacet
  facet normal -2.15463e-17 5.20173e-17 -1
    outer loop
      vertex -2.85891 5.02056 2.73185e-16
      vertex -2.46747 5.1827 2.73185e-16
      vertex -0.806392 0.618932 0
    endloop
  endfacet
  facet normal -1.69307e-17 5.36972e-17 -1
    outer loop
      vertex -2.46747 5.1827 2.73185e-16
      vertex -2.06339 5.31011 2.73185e-16
      vertex -0.806392 0.618932 0
    endloop
  endfacet
  facet normal -1.21862e-17 5.49685e-17 -1
    outer loop
      vertex -0.806392 0.618932 0
      vertex -2.06339 5.31011 2.73185e-16
      vertex -1.64974 5.40181 2.73185e-16
    endloop
  endfacet
  facet normal -3.42752e-17 4.46683e-17 -1
    outer loop
      vertex -3.92819 4.33935 2.73185e-16
      vertex -3.59206 4.59727 2.73185e-16
      vertex -0.806392 0.618932 0
    endloop
  endfacet
  facet normal -3.02517e-17 4.74856e-17 -1
    outer loop
      vertex -3.59206 4.59727 2.73185e-16
      vertex -3.23472 4.82492 2.73185e-16
      vertex -0.806392 0.618932 0
    endloop
  endfacet
  facet normal -2.59979e-17 4.99415e-17 -1
    outer loop
      vertex -0.806392 0.618932 0
      vertex -3.23472 4.82492 2.73185e-16
      vertex -2.85891 5.02056 2.73185e-16
    endloop
  endfacet
  facet normal -4.46683e-17 3.42752e-17 -1
    outer loop
      vertex -4.78473 3.4046 2.73185e-16
      vertex -4.52681 3.74073 2.73185e-16
      vertex -0.806392 0.618932 0
    endloop
  endfacet
  facet normal -4.1511e-17 3.80378e-17 -1
    outer loop
      vertex -4.52681 3.74073 2.73185e-16
      vertex -4.24057 4.05311 2.73185e-16
      vertex -0.806392 0.618932 0
    endloop
  endfacet
  facet normal -3.80378e-17 4.1511e-17 -1
    outer loop
      vertex -0.806392 0.618932 0
      vertex -4.24057 4.05311 2.73185e-16
      vertex -3.92819 4.33935 2.73185e-16
    endloop
  endfacet
  facet normal -5.20173e-17 2.15463e-17 -1
    outer loop
      vertex -5.37016 2.28001 2.73185e-16
      vertex -5.20802 2.67144 2.73185e-16
      vertex -0.806392 0.618932 0
    endloop
  endfacet
  facet normal -4.99415e-17 2.59979e-17 -1
    outer loop
      vertex -5.20802 2.67144 2.73185e-16
      vertex -5.01238 3.04726 2.73185e-16
      vertex -0.806392 0.618932 0
    endloop
  endfacet
  facet normal -4.74856e-17 3.02517e-17 -1
    outer loop
      vertex -0.806392 0.618932 0
      vertex -5.01238 3.04726 2.73185e-16
      vertex -4.78473 3.4046 2.73185e-16
    endloop
  endfacet
  facet normal -5.58214e-17 7.34898e-18 -1
    outer loop
      vertex -5.64457 1.04222 2.73185e-16
      vertex -5.58927 1.46228 2.73185e-16
      vertex -0.806392 0.618932 0
    endloop
  endfacet
  facet normal -5.49685e-17 1.21862e-17 -1
    outer loop
      vertex -5.58927 1.46228 2.73185e-16
      vertex -5.49757 1.87593 2.73185e-16
      vertex -0.806392 0.618932 0
    endloop
  endfacet
  facet normal -5.36972e-17 1.69307e-17 -1
    outer loop
      vertex -0.806392 0.618932 0
      vertex -5.49757 1.87593 2.73185e-16
      vertex -5.37016 2.28001 2.73185e-16
    endloop
  endfacet
  facet normal -5.58214e-17 -7.34897e-18 -1
    outer loop
      vertex -5.58927 -0.224418 2.73185e-16
      vertex -5.64457 0.195646 2.73185e-16
      vertex -0.806392 0.618932 0
    endloop
  endfacet
  facet normal -5.62495e-17 -2.45589e-18 -1
    outer loop
      vertex -5.64457 0.195646 2.73185e-16
      vertex -5.66305 0.618932 2.73185e-16
      vertex -0.806392 0.618932 0
    endloop
  endfacet
  facet normal -5.62495e-17 2.45589e-18 -1
    outer loop
      vertex -0.806392 0.618932 0
      vertex -5.66305 0.618932 2.73185e-16
      vertex -5.64457 1.04222 2.73185e-16
    endloop
  endfacet
  facet normal -5.20173e-17 -2.15463e-17 -1
    outer loop
      vertex -5.20802 -1.43358 2.73185e-16
      vertex -5.37016 -1.04214 2.73185e-16
      vertex -0.806392 0.618932 0
    endloop
  endfacet
  facet normal -5.36972e-17 -1.69307e-17 -1
    outer loop
      vertex -5.37016 -1.04214 2.73185e-16
      vertex -5.49757 -0.638064 2.73185e-16
      vertex -0.806392 0.618932 0
    endloop
  endfacet
  facet normal -5.49685e-17 -1.21862e-17 -1
    outer loop
      vertex -0.806392 0.618932 0
      vertex -5.49757 -0.638064 2.73185e-16
      vertex -5.58927 -0.224418 2.73185e-16
    endloop
  endfacet
  facet normal -4.46683e-17 -3.42752e-17 -1
    outer loop
      vertex -4.52681 -2.50287 2.73185e-16
      vertex -4.78473 -2.16673 2.73185e-16
      vertex -0.806392 0.618932 0
    endloop
  endfacet
  facet normal -4.74856e-17 -3.02517e-17 -1
    outer loop
      vertex -4.78473 -2.16673 2.73185e-16
      vertex -5.01238 -1.8094 2.73185e-16
      vertex -0.806392 0.618932 0
    endloop
  endfacet
  facet normal -4.99415e-17 -2.59979e-17 -1
    outer loop
      vertex -0.806392 0.618932 0
      vertex -5.01238 -1.8094 2.73185e-16
      vertex -5.20802 -1.43358 2.73185e-16
    endloop
  endfacet
  facet normal -3.42752e-17 -4.46683e-17 -1
    outer loop
      vertex -3.59206 -3.35941 2.73185e-16
      vertex -3.92819 -3.10149 2.73185e-16
      vertex -0.806392 0.618932 0
    endloop
  endfacet
  facet normal -3.80378e-17 -4.1511e-17 -1
    outer loop
      vertex -3.92819 -3.10149 2.73185e-16
      vertex -4.24057 -2.81525 2.73185e-16
      vertex -0.806392 0.618932 0
    endloop
  endfacet
  facet normal -4.1511e-17 -3.80378e-17 -1
    outer loop
      vertex -0.806392 0.618932 0
      vertex -4.24057 -2.81525 2.73185e-16
      vertex -4.52681 -2.50287 2.73185e-16
    endloop
  endfacet
  facet normal -2.15463e-17 -5.20173e-17 -1
    outer loop
      vertex -2.46747 -3.94484 2.73185e-16
      vertex -2.85891 -3.7827 2.73185e-16
      vertex -0.806392 0.618932 0
    endloop
  endfacet
  facet normal -2.59979e-17 -4.99415e-17 -1
    outer loop
      vertex -2.85891 -3.7827 2.73185e-16
      vertex -3.23472 -3.58706 2.73185e-16
      vertex -0.806392 0.618932 0
    endloop
  endfacet
  facet normal -3.02516e-17 -4.74856e-17 -1
    outer loop
      vertex -0.806392 0.618932 0
      vertex -3.23472 -3.58706 2.73185e-16
      vertex -3.59206 -3.35941 2.73185e-16
    endloop
  endfacet
  facet normal -7.34901e-18 -5.58214e-17 -1
    outer loop
      vertex -1.22968 -4.21925 2.73185e-16
      vertex -1.64974 -4.16394 2.73185e-16
      vertex -0.806392 0.618932 0
    endloop
  endfacet
  facet normal -1.21862e-17 -5.49685e-17 -1
    outer loop
      vertex -1.64974 -4.16394 2.73185e-16
      vertex -2.06339 -4.07224 2.73185e-16
      vertex -0.806392 0.618932 0
    endloop
  endfacet
  facet normal -1.69307e-17 -5.36972e-17 -1
    outer loop
      vertex -0.806392 0.618932 0
      vertex -2.06339 -4.07224 2.73185e-16
      vertex -2.46747 -3.94484 2.73185e-16
    endloop
  endfacet
  facet normal 7.34901e-18 -5.58214e-17 -1
    outer loop
      vertex 0.0369582 -4.16394 2.73185e-16
      vertex -0.383106 -4.21925 2.73185e-16
      vertex -0.806392 0.618932 0
    endloop
  endfacet
  facet normal 2.45593e-18 -5.62495e-17 -1
    outer loop
      vertex -0.383106 -4.21925 2.73185e-16
      vertex -0.806392 -4.23773 2.73185e-16
      vertex -0.806392 0.618932 0
    endloop
  endfacet
  facet normal -2.45593e-18 -5.62495e-17 -1
    outer loop
      vertex -0.806392 0.618932 0
      vertex -0.806392 -4.23773 2.73185e-16
      vertex -1.22968 -4.21925 2.73185e-16
    endloop
  endfacet
  facet normal 2.15463e-17 -5.20173e-17 -1
    outer loop
      vertex 1.24612 -3.7827 2.73185e-16
      vertex 0.854684 -3.94484 2.73185e-16
      vertex -0.806392 0.618932 0
    endloop
  endfacet
  facet normal 1.69307e-17 -5.36972e-17 -1
    outer loop
      vertex 0.854684 -3.94484 2.73185e-16
      vertex 0.450604 -4.07224 2.73185e-16
      vertex -0.806392 0.618932 0
    endloop
  endfacet
  facet normal 1.21862e-17 -5.49685e-17 -1
    outer loop
      vertex -0.806392 0.618932 0
      vertex 0.450604 -4.07224 2.73185e-16
      vertex 0.0369582 -4.16394 2.73185e-16
    endloop
  endfacet
  facet normal 3.42752e-17 -4.46683e-17 -1
    outer loop
      vertex 2.31541 -3.10149 2.73185e-16
      vertex 1.97927 -3.35941 2.73185e-16
      vertex -0.806392 0.618932 0
    endloop
  endfacet
  facet normal 3.02516e-17 -4.74856e-17 -1
    outer loop
      vertex 1.97927 -3.35941 2.73185e-16
      vertex 1.62194 -3.58706 2.73185e-16
      vertex -0.806392 0.618932 0
    endloop
  endfacet
  facet normal 2.59979e-17 -4.99415e-17 -1
    outer loop
      vertex -0.806392 0.618932 0
      vertex 1.62194 -3.58706 2.73185e-16
      vertex 1.24612 -3.7827 2.73185e-16
    endloop
  endfacet
  facet normal 4.46683e-17 -3.42752e-17 -1
    outer loop
      vertex 3.17195 -2.16673 2.73185e-16
      vertex 2.91403 -2.50287 2.73185e-16
      vertex -0.806392 0.618932 0
    endloop
  endfacet
  facet normal 4.1511e-17 -3.80378e-17 -1
    outer loop
      vertex 2.91403 -2.50287 2.73185e-16
      vertex 2.62779 -2.81525 2.73185e-16
      vertex -0.806392 0.618932 0
    endloop
  endfacet
  facet normal 3.80378e-17 -4.1511e-17 -1
    outer loop
      vertex -0.806392 0.618932 0
      vertex 2.62779 -2.81525 2.73185e-16
      vertex 2.31541 -3.10149 2.73185e-16
    endloop
  endfacet
  facet normal 5.20173e-17 -2.15463e-17 -1
    outer loop
      vertex 3.75738 -1.04214 2.73185e-16
      vertex 3.59524 -1.43358 2.73185e-16
      vertex -0.806392 0.618932 0
    endloop
  endfacet
  facet normal 4.99415e-17 -2.59979e-17 -1
    outer loop
      vertex 3.59524 -1.43358 2.73185e-16
      vertex 3.3996 -1.8094 2.73185e-16
      vertex -0.806392 0.618932 0
    endloop
  endfacet
  facet normal 4.74856e-17 -3.02516e-17 -1
    outer loop
      vertex -0.806392 0.618932 0
      vertex 3.3996 -1.8094 2.73185e-16
      vertex 3.17195 -2.16673 2.73185e-16
    endloop
  endfacet
  facet normal 5.58214e-17 -7.34905e-18 -1
    outer loop
      vertex 4.03179 0.195646 2.73185e-16
      vertex 3.97648 -0.224418 2.73185e-16
      vertex -0.806392 0.618932 0
    endloop
  endfacet
  facet normal 5.49685e-17 -1.21862e-17 -1
    outer loop
      vertex 3.97648 -0.224418 2.73185e-16
      vertex 3.88478 -0.638064 2.73185e-16
      vertex -0.806392 0.618932 0
    endloop
  endfacet
  facet normal 5.36972e-17 -1.69306e-17 -1
    outer loop
      vertex -0.806392 0.618932 0
      vertex 3.88478 -0.638064 2.73185e-16
      vertex 3.75738 -1.04214 2.73185e-16
    endloop
  endfacet
  facet normal -0.999048 0.0436192 0
    outer loop
      vertex -5.66305 0.618932 2.73185e-16
      vertex -5.64457 1.04222 1
      vertex -5.64457 1.04222 2.73185e-16
    endloop
  endfacet
  facet normal -0.991445 0.130525 0
    outer loop
      vertex -5.64457 1.04222 1
      vertex -5.58927 1.46228 1
      vertex -5.64457 1.04222 2.73185e-16
    endloop
  endfacet
  facet normal -0.991445 0.130525 0
    outer loop
      vertex -5.64457 1.04222 2.73185e-16
      vertex -5.58927 1.46228 1
      vertex -5.58927 1.46228 2.73185e-16
    endloop
  endfacet
  facet normal -0.976296 0.21644 0
    outer loop
      vertex -5.58927 1.46228 1
      vertex -5.49757 1.87593 1
      vertex -5.58927 1.46228 2.73185e-16
    endloop
  endfacet
  facet normal -0.976296 0.21644 0
    outer loop
      vertex -5.58927 1.46228 2.73185e-16
      vertex -5.49757 1.87593 1
      vertex -5.49757 1.87593 2.73185e-16
    endloop
  endfacet
  facet normal -0.953717 0.300707 0
    outer loop
      vertex -5.49757 1.87593 1
      vertex -5.37016 2.28001 1
      vertex -5.49757 1.87593 2.73185e-16
    endloop
  endfacet
  facet normal -0.953717 0.300707 0
    outer loop
      vertex -5.49757 1.87593 2.73185e-16
      vertex -5.37016 2.28001 1
      vertex -5.37016 2.28001 2.73185e-16
    endloop
  endfacet
  facet normal -0.92388 0.382683 0
    outer loop
      vertex -5.37016 2.28001 1
      vertex -5.20802 2.67144 1
      vertex -5.37016 2.28001 2.73185e-16
    endloop
  endfacet
  facet normal -0.92388 0.382683 0
    outer loop
      vertex -5.37016 2.28001 2.73185e-16
      vertex -5.20802 2.67144 1
      vertex -5.20802 2.67144 2.73185e-16
    endloop
  endfacet
  facet normal -0.887011 0.461748 0
    outer loop
      vertex -5.20802 2.67144 1
      vertex -5.01238 3.04726 1
      vertex -5.20802 2.67144 2.73185e-16
    endloop
  endfacet
  facet normal -0.887011 0.461748 0
    outer loop
      vertex -5.20802 2.67144 2.73185e-16
      vertex -5.01238 3.04726 1
      vertex -5.01238 3.04726 2.73185e-16
    endloop
  endfacet
  facet normal -0.843391 0.5373 0
    outer loop
      vertex -5.01238 3.04726 1
      vertex -4.78473 3.4046 1
      vertex -5.01238 3.04726 2.73185e-16
    endloop
  endfacet
  facet normal -0.843391 0.5373 0
    outer loop
      vertex -5.01238 3.04726 2.73185e-16
      vertex -4.78473 3.4046 1
      vertex -4.78473 3.4046 2.73185e-16
    endloop
  endfacet
  facet normal -0.793353 0.608761 0
    outer loop
      vertex -4.78473 3.4046 1
      vertex -4.52681 3.74073 1
      vertex -4.78473 3.4046 2.73185e-16
    endloop
  endfacet
  facet normal -0.793353 0.608761 0
    outer loop
      vertex -4.78473 3.4046 2.73185e-16
      vertex -4.52681 3.74073 1
      vertex -4.52681 3.74073 2.73185e-16
    endloop
  endfacet
  facet normal -0.737277 0.67559 0
    outer loop
      vertex -4.52681 3.74073 1
      vertex -4.24057 4.05311 1
      vertex -4.52681 3.74073 2.73185e-16
    endloop
  endfacet
  facet normal -0.737277 0.67559 0
    outer loop
      vertex -4.52681 3.74073 2.73185e-16
      vertex -4.24057 4.05311 1
      vertex -4.24057 4.05311 2.73185e-16
    endloop
  endfacet
  facet normal -0.67559 0.737277 0
    outer loop
      vertex -4.24057 4.05311 1
      vertex -3.92819 4.33935 1
      vertex -4.24057 4.05311 2.73185e-16
    endloop
  endfacet
  facet normal -0.67559 0.737277 0
    outer loop
      vertex -4.24057 4.05311 2.73185e-16
      vertex -3.92819 4.33935 1
      vertex -3.92819 4.33935 2.73185e-16
    endloop
  endfacet
  facet normal -0.608762 0.793353 0
    outer loop
      vertex -3.92819 4.33935 1
      vertex -3.59206 4.59727 1
      vertex -3.92819 4.33935 2.73185e-16
    endloop
  endfacet
  facet normal -0.608762 0.793353 0
    outer loop
      vertex -3.92819 4.33935 2.73185e-16
      vertex -3.59206 4.59727 1
      vertex -3.59206 4.59727 2.73185e-16
    endloop
  endfacet
  facet normal -0.5373 0.843391 0
    outer loop
      vertex -3.59206 4.59727 1
      vertex -3.23472 4.82492 1
      vertex -3.59206 4.59727 2.73185e-16
    endloop
  endfacet
  facet normal -0.5373 0.843391 0
    outer loop
      vertex -3.59206 4.59727 2.73185e-16
      vertex -3.23472 4.82492 1
      vertex -3.23472 4.82492 2.73185e-16
    endloop
  endfacet
  facet normal -0.461748 0.887011 0
    outer loop
      vertex -3.23472 4.82492 1
      vertex -2.85891 5.02056 1
      vertex -3.23472 4.82492 2.73185e-16
    endloop
  endfacet
  facet normal -0.461748 0.887011 0
    outer loop
      vertex -3.23472 4.82492 2.73185e-16
      vertex -2.85891 5.02056 1
      vertex -2.85891 5.02056 2.73185e-16
    endloop
  endfacet
  facet normal -0.382683 0.92388 0
    outer loop
      vertex -2.85891 5.02056 1
      vertex -2.46747 5.1827 1
      vertex -2.85891 5.02056 2.73185e-16
    endloop
  endfacet
  facet normal -0.382683 0.92388 0
    outer loop
      vertex -2.85891 5.02056 2.73185e-16
      vertex -2.46747 5.1827 1
      vertex -2.46747 5.1827 2.73185e-16
    endloop
  endfacet
  facet normal -0.300707 0.953717 0
    outer loop
      vertex -2.46747 5.1827 1
      vertex -2.06339 5.31011 1
      vertex -2.46747 5.1827 2.73185e-16
    endloop
  endfacet
  facet normal -0.300707 0.953717 0
    outer loop
      vertex -2.46747 5.1827 2.73185e-16
      vertex -2.06339 5.31011 1
      vertex -2.06339 5.31011 2.73185e-16
    endloop
  endfacet
  facet normal -0.21644 0.976296 0
    outer loop
      vertex -2.06339 5.31011 1
      vertex -1.64974 5.40181 1
      vertex -2.06339 5.31011 2.73185e-16
    endloop
  endfacet
  facet normal -0.21644 0.976296 0
    outer loop
      vertex -2.06339 5.31011 2.73185e-16
      vertex -1.64974 5.40181 1
      vertex -1.64974 5.40181 2.73185e-16
    endloop
  endfacet
  facet normal -0.130525 0.991445 0
    outer loop
      vertex -1.64974 5.40181 1
      vertex -1.22968 5.45711 1
      vertex -1.64974 5.40181 2.73185e-16
    endloop
  endfacet
  facet normal -0.130525 0.991445 0
    outer loop
      vertex -1.64974 5.40181 2.73185e-16
      vertex -1.22968 5.45711 1
      vertex -1.22968 5.45711 2.73185e-16
    endloop
  endfacet
  facet normal -0.0436205 0.999048 0
    outer loop
      vertex -1.22968 5.45711 1
      vertex -0.806392 5.47559 1
      vertex -1.22968 5.45711 2.73185e-16
    endloop
  endfacet
  facet normal -0.0436205 0.999048 0
    outer loop
      vertex -1.22968 5.45711 2.73185e-16
      vertex -0.806392 5.47559 1
      vertex -0.806392 5.47559 2.73185e-16
    endloop
  endfacet
  facet normal 0.0436205 0.999048 0
    outer loop
      vertex -0.806392 5.47559 1
      vertex -0.383106 5.45711 1
      vertex -0.806392 5.47559 2.73185e-16
    endloop
  endfacet
  facet normal 0.0436205 0.999048 0
    outer loop
      vertex -0.806392 5.47559 2.73185e-16
      vertex -0.383106 5.45711 1
      vertex -0.383106 5.45711 2.73185e-16
    endloop
  endfacet
  facet normal 0.130525 0.991445 0
    outer loop
      vertex -0.383106 5.45711 1
      vertex 0.0369582 5.40181 1
      vertex -0.383106 5.45711 2.73185e-16
    endloop
  endfacet
  facet normal 0.130525 0.991445 0
    outer loop
      vertex -0.383106 5.45711 2.73185e-16
      vertex 0.0369582 5.40181 1
      vertex 0.0369582 5.40181 2.73185e-16
    endloop
  endfacet
  facet normal 0.21644 0.976296 0
    outer loop
      vertex 0.0369582 5.40181 1
      vertex 0.450604 5.31011 1
      vertex 0.0369582 5.40181 2.73185e-16
    endloop
  endfacet
  facet normal 0.21644 0.976296 0
    outer loop
      vertex 0.0369582 5.40181 2.73185e-16
      vertex 0.450604 5.31011 1
      vertex 0.450604 5.31011 2.73185e-16
    endloop
  endfacet
  facet normal 0.300707 0.953717 0
    outer loop
      vertex 0.450604 5.31011 1
      vertex 0.854684 5.1827 1
      vertex 0.450604 5.31011 2.73185e-16
    endloop
  endfacet
  facet normal 0.300707 0.953717 0
    outer loop
      vertex 0.450604 5.31011 2.73185e-16
      vertex 0.854684 5.1827 1
      vertex 0.854684 5.1827 2.73185e-16
    endloop
  endfacet
  facet normal 0.382683 0.92388 0
    outer loop
      vertex 0.854684 5.1827 1
      vertex 1.24612 5.02056 1
      vertex 0.854684 5.1827 2.73185e-16
    endloop
  endfacet
  facet normal 0.382683 0.92388 0
    outer loop
      vertex 0.854684 5.1827 2.73185e-16
      vertex 1.24612 5.02056 1
      vertex 1.24612 5.02056 2.73185e-16
    endloop
  endfacet
  facet normal 0.461748 0.887011 0
    outer loop
      vertex 1.24612 5.02056 1
      vertex 1.62194 4.82492 1
      vertex 1.24612 5.02056 2.73185e-16
    endloop
  endfacet
  facet normal 0.461748 0.887011 0
    outer loop
      vertex 1.24612 5.02056 2.73185e-16
      vertex 1.62194 4.82492 1
      vertex 1.62194 4.82492 2.73185e-16
    endloop
  endfacet
  facet normal 0.5373 0.843391 0
    outer loop
      vertex 1.62194 4.82492 1
      vertex 1.97927 4.59727 1
      vertex 1.62194 4.82492 2.73185e-16
    endloop
  endfacet
  facet normal 0.5373 0.843391 0
    outer loop
      vertex 1.62194 4.82492 2.73185e-16
      vertex 1.97927 4.59727 1
      vertex 1.97927 4.59727 2.73185e-16
    endloop
  endfacet
  facet normal 0.608761 0.793353 0
    outer loop
      vertex 1.97927 4.59727 1
      vertex 2.31541 4.33935 1
      vertex 1.97927 4.59727 2.73185e-16
    endloop
  endfacet
  facet normal 0.608761 0.793353 0
    outer loop
      vertex 1.97927 4.59727 2.73185e-16
      vertex 2.31541 4.33935 1
      vertex 2.31541 4.33935 2.73185e-16
    endloop
  endfacet
  facet normal 0.67559 0.737277 0
    outer loop
      vertex 2.31541 4.33935 1
      vertex 2.62779 4.05311 1
      vertex 2.31541 4.33935 2.73185e-16
    endloop
  endfacet
  facet normal 0.67559 0.737277 0
    outer loop
      vertex 2.31541 4.33935 2.73185e-16
      vertex 2.62779 4.05311 1
      vertex 2.62779 4.05311 2.73185e-16
    endloop
  endfacet
  facet normal 0.737277 0.67559 0
    outer loop
      vertex 2.62779 4.05311 1
      vertex 2.91403 3.74073 1
      vertex 2.62779 4.05311 2.73185e-16
    endloop
  endfacet
  facet normal 0.737277 0.67559 0
    outer loop
      vertex 2.62779 4.05311 2.73185e-16
      vertex 2.91403 3.74073 1
      vertex 2.91403 3.74073 2.73185e-16
    endloop
  endfacet
  facet normal 0.793353 0.608761 0
    outer loop
      vertex 2.91403 3.74073 1
      vertex 3.17195 3.4046 1
      vertex 2.91403 3.74073 2.73185e-16
    endloop
  endfacet
  facet normal 0.793353 0.608761 0
    outer loop
      vertex 2.91403 3.74073 2.73185e-16
      vertex 3.17195 3.4046 1
      vertex 3.17195 3.4046 2.73185e-16
    endloop
  endfacet
  facet normal 0.843392 0.537299 0
    outer loop
      vertex 3.17195 3.4046 1
      vertex 3.3996 3.04726 1
      vertex 3.17195 3.4046 2.73185e-16
    endloop
  endfacet
  facet normal 0.843392 0.537299 0
    outer loop
      vertex 3.17195 3.4046 2.73185e-16
      vertex 3.3996 3.04726 1
      vertex 3.3996 3.04726 2.73185e-16
    endloop
  endfacet
  facet normal 0.887011 0.461749 0
    outer loop
      vertex 3.3996 3.04726 1
      vertex 3.59524 2.67144 1
      vertex 3.3996 3.04726 2.73185e-16
    endloop
  endfacet
  facet normal 0.887011 0.461749 0
    outer loop
      vertex 3.3996 3.04726 2.73185e-16
      vertex 3.59524 2.67144 1
      vertex 3.59524 2.67144 2.73185e-16
    endloop
  endfacet
  facet normal 0.923879 0.382684 0
    outer loop
      vertex 3.59524 2.67144 1
      vertex 3.75738 2.28001 1
      vertex 3.59524 2.67144 2.73185e-16
    endloop
  endfacet
  facet normal 0.923879 0.382684 0
    outer loop
      vertex 3.59524 2.67144 2.73185e-16
      vertex 3.75738 2.28001 1
      vertex 3.75738 2.28001 2.73185e-16
    endloop
  endfacet
  facet normal 0.953717 0.300705 0
    outer loop
      vertex 3.75738 2.28001 1
      vertex 3.88478 1.87593 1
      vertex 3.75738 2.28001 2.73185e-16
    endloop
  endfacet
  facet normal 0.953717 0.300705 0
    outer loop
      vertex 3.75738 2.28001 2.73185e-16
      vertex 3.88478 1.87593 1
      vertex 3.88478 1.87593 2.73185e-16
    endloop
  endfacet
  facet normal 0.976296 0.21644 0
    outer loop
      vertex 3.88478 1.87593 1
      vertex 3.97648 1.46228 1
      vertex 3.88478 1.87593 2.73185e-16
    endloop
  endfacet
  facet normal 0.976296 0.21644 0
    outer loop
      vertex 3.88478 1.87593 2.73185e-16
      vertex 3.97648 1.46228 1
      vertex 3.97648 1.46228 2.73185e-16
    endloop
  endfacet
  facet normal 0.991445 0.130527 0
    outer loop
      vertex 3.97648 1.46228 1
      vertex 4.03179 1.04222 1
      vertex 3.97648 1.46228 2.73185e-16
    endloop
  endfacet
  facet normal 0.991445 0.130527 0
    outer loop
      vertex 3.97648 1.46228 2.73185e-16
      vertex 4.03179 1.04222 1
      vertex 4.03179 1.04222 2.73185e-16
    endloop
  endfacet
  facet normal 0.999048 0.0436192 0
    outer loop
      vertex 4.03179 1.04222 1
      vertex 4.05027 0.618932 1
      vertex 4.03179 1.04222 2.73185e-16
    endloop
  endfacet
  facet normal 0.999048 0.0436192 0
    outer loop
      vertex 4.03179 1.04222 2.73185e-16
      vertex 4.05027 0.618932 1
      vertex 4.05027 0.618932 2.73185e-16
    endloop
  endfacet
  facet normal 0.999048 -0.0436192 0
    outer loop
      vertex 4.05027 0.618932 1
      vertex 4.03179 0.195646 1
      vertex 4.05027 0.618932 2.73185e-16
    endloop
  endfacet
  facet normal 0.999048 -0.0436192 0
    outer loop
      vertex 4.05027 0.618932 2.73185e-16
      vertex 4.03179 0.195646 1
      vertex 4.03179 0.195646 2.73185e-16
    endloop
  endfacet
  facet normal 0.991445 -0.130527 0
    outer loop
      vertex 4.03179 0.195646 1
      vertex 3.97648 -0.224418 1
      vertex 4.03179 0.195646 2.73185e-16
    endloop
  endfacet
  facet normal 0.991445 -0.130527 0
    outer loop
      vertex 4.03179 0.195646 2.73185e-16
      vertex 3.97648 -0.224418 1
      vertex 3.97648 -0.224418 2.73185e-16
    endloop
  endfacet
  facet normal 0.976296 -0.21644 0
    outer loop
      vertex 3.97648 -0.224418 1
      vertex 3.88478 -0.638064 1
      vertex 3.97648 -0.224418 2.73185e-16
    endloop
  endfacet
  facet normal 0.976296 -0.21644 0
    outer loop
      vertex 3.97648 -0.224418 2.73185e-16
      vertex 3.88478 -0.638064 1
      vertex 3.88478 -0.638064 2.73185e-16
    endloop
  endfacet
  facet normal 0.953717 -0.300705 0
    outer loop
      vertex 3.88478 -0.638064 1
      vertex 3.75738 -1.04214 1
      vertex 3.88478 -0.638064 2.73185e-16
    endloop
  endfacet
  facet normal 0.953717 -0.300705 0
    outer loop
      vertex 3.88478 -0.638064 2.73185e-16
      vertex 3.75738 -1.04214 1
      vertex 3.75738 -1.04214 2.73185e-16
    endloop
  endfacet
  facet normal 0.923879 -0.382684 0
    outer loop
      vertex 3.75738 -1.04214 1
      vertex 3.59524 -1.43358 1
      vertex 3.75738 -1.04214 2.73185e-16
    endloop
  endfacet
  facet normal 0.923879 -0.382684 0
    outer loop
      vertex 3.75738 -1.04214 2.73185e-16
      vertex 3.59524 -1.43358 1
      vertex 3.59524 -1.43358 2.73185e-16
    endloop
  endfacet
  facet normal 0.887011 -0.461749 0
    outer loop
      vertex 3.59524 -1.43358 1
      vertex 3.3996 -1.8094 1
      vertex 3.59524 -1.43358 2.73185e-16
    endloop
  endfacet
  facet normal 0.887011 -0.461749 0
    outer loop
      vertex 3.59524 -1.43358 2.73185e-16
      vertex 3.3996 -1.8094 1
      vertex 3.3996 -1.8094 2.73185e-16
    endloop
  endfacet
  facet normal 0.843392 -0.537299 0
    outer loop
      vertex 3.3996 -1.8094 1
      vertex 3.17195 -2.16673 1
      vertex 3.3996 -1.8094 2.73185e-16
    endloop
  endfacet
  facet normal 0.843392 -0.537299 0
    outer loop
      vertex 3.3996 -1.8094 2.73185e-16
      vertex 3.17195 -2.16673 1
      vertex 3.17195 -2.16673 2.73185e-16
    endloop
  endfacet
  facet normal 0.793353 -0.608761 0
    outer loop
      vertex 3.17195 -2.16673 1
      vertex 2.91403 -2.50287 1
      vertex 3.17195 -2.16673 2.73185e-16
    endloop
  endfacet
  facet normal 0.793353 -0.608761 0
    outer loop
      vertex 3.17195 -2.16673 2.73185e-16
      vertex 2.91403 -2.50287 1
      vertex 2.91403 -2.50287 2.73185e-16
    endloop
  endfacet
  facet normal 0.737277 -0.67559 0
    outer loop
      vertex 2.91403 -2.50287 1
      vertex 2.62779 -2.81525 1
      vertex 2.91403 -2.50287 2.73185e-16
    endloop
  endfacet
  facet normal 0.737277 -0.67559 0
    outer loop
      vertex 2.91403 -2.50287 2.73185e-16
      vertex 2.62779 -2.81525 1
      vertex 2.62779 -2.81525 2.73185e-16
    endloop
  endfacet
  facet normal 0.67559 -0.737277 0
    outer loop
      vertex 2.62779 -2.81525 1
      vertex 2.31541 -3.10149 1
      vertex 2.62779 -2.81525 2.73185e-16
    endloop
  endfacet
  facet normal 0.67559 -0.737277 0
    outer loop
      vertex 2.62779 -2.81525 2.73185e-16
      vertex 2.31541 -3.10149 1
      vertex 2.31541 -3.10149 2.73185e-16
    endloop
  endfacet
  facet normal 0.608761 -0.793353 0
    outer loop
      vertex 2.31541 -3.10149 1
      vertex 1.97927 -3.35941 1
      vertex 2.31541 -3.10149 2.73185e-16
    endloop
  endfacet
  facet normal 0.608761 -0.793353 0
    outer loop
      vertex 2.31541 -3.10149 2.73185e-16
      vertex 1.97927 -3.35941 1
      vertex 1.97927 -3.35941 2.73185e-16
    endloop
  endfacet
  facet normal 0.537299 -0.843392 0
    outer loop
      vertex 1.97927 -3.35941 1
      vertex 1.62194 -3.58706 1
      vertex 1.97927 -3.35941 2.73185e-16
    endloop
  endfacet
  facet normal 0.537299 -0.843392 0
    outer loop
      vertex 1.97927 -3.35941 2.73185e-16
      vertex 1.62194 -3.58706 1
      vertex 1.62194 -3.58706 2.73185e-16
    endloop
  endfacet
  facet normal 0.461749 -0.887011 0
    outer loop
      vertex 1.62194 -3.58706 1
      vertex 1.24612 -3.7827 1
      vertex 1.62194 -3.58706 2.73185e-16
    endloop
  endfacet
  facet normal 0.461749 -0.887011 0
    outer loop
      vertex 1.62194 -3.58706 2.73185e-16
      vertex 1.24612 -3.7827 1
      vertex 1.24612 -3.7827 2.73185e-16
    endloop
  endfacet
  facet normal 0.382683 -0.92388 0
    outer loop
      vertex 1.24612 -3.7827 1
      vertex 0.854684 -3.94484 1
      vertex 1.24612 -3.7827 2.73185e-16
    endloop
  endfacet
  facet normal 0.382683 -0.92388 0
    outer loop
      vertex 1.24612 -3.7827 2.73185e-16
      vertex 0.854684 -3.94484 1
      vertex 0.854684 -3.94484 2.73185e-16
    endloop
  endfacet
  facet normal 0.300706 -0.953717 0
    outer loop
      vertex 0.854684 -3.94484 1
      vertex 0.450604 -4.07224 1
      vertex 0.854684 -3.94484 2.73185e-16
    endloop
  endfacet
  facet normal 0.300706 -0.953717 0
    outer loop
      vertex 0.854684 -3.94484 2.73185e-16
      vertex 0.450604 -4.07224 1
      vertex 0.450604 -4.07224 2.73185e-16
    endloop
  endfacet
  facet normal 0.21644 -0.976296 0
    outer loop
      vertex 0.450604 -4.07224 1
      vertex 0.0369582 -4.16394 1
      vertex 0.450604 -4.07224 2.73185e-16
    endloop
  endfacet
  facet normal 0.21644 -0.976296 0
    outer loop
      vertex 0.450604 -4.07224 2.73185e-16
      vertex 0.0369582 -4.16394 1
      vertex 0.0369582 -4.16394 2.73185e-16
    endloop
  endfacet
  facet normal 0.130526 -0.991445 0
    outer loop
      vertex 0.0369582 -4.16394 1
      vertex -0.383106 -4.21925 1
      vertex 0.0369582 -4.16394 2.73185e-16
    endloop
  endfacet
  facet normal 0.130526 -0.991445 0
    outer loop
      vertex 0.0369582 -4.16394 2.73185e-16
      vertex -0.383106 -4.21925 1
      vertex -0.383106 -4.21925 2.73185e-16
    endloop
  endfacet
  facet normal 0.0436199 -0.999048 0
    outer loop
      vertex -0.383106 -4.21925 1
      vertex -0.806392 -4.23773 1
      vertex -0.383106 -4.21925 2.73185e-16
    endloop
  endfacet
  facet normal 0.0436199 -0.999048 0
    outer loop
      vertex -0.383106 -4.21925 2.73185e-16
      vertex -0.806392 -4.23773 1
      vertex -0.806392 -4.23773 2.73185e-16
    endloop
  endfacet
  facet normal -0.0436198 -0.999048 0
    outer loop
      vertex -0.806392 -4.23773 1
      vertex -1.22968 -4.21925 1
      vertex -0.806392 -4.23773 2.73185e-16
    endloop
  endfacet
  facet normal -0.0436198 -0.999048 0
    outer loop
      vertex -0.806392 -4.23773 2.73185e-16
      vertex -1.22968 -4.21925 1
      vertex -1.22968 -4.21925 2.73185e-16
    endloop
  endfacet
  facet normal -0.130526 -0.991445 0
    outer loop
      vertex -1.22968 -4.21925 1
      vertex -1.64974 -4.16394 1
      vertex -1.22968 -4.21925 2.73185e-16
    endloop
  endfacet
  facet normal -0.130526 -0.991445 0
    outer loop
      vertex -1.22968 -4.21925 2.73185e-16
      vertex -1.64974 -4.16394 1
      vertex -1.64974 -4.16394 2.73185e-16
    endloop
  endfacet
  facet normal -0.21644 -0.976296 0
    outer loop
      vertex -1.64974 -4.16394 1
      vertex -2.06339 -4.07224 1
      vertex -1.64974 -4.16394 2.73185e-16
    endloop
  endfacet
  facet normal -0.21644 -0.976296 0
    outer loop
      vertex -1.64974 -4.16394 2.73185e-16
      vertex -2.06339 -4.07224 1
      vertex -2.06339 -4.07224 2.73185e-16
    endloop
  endfacet
  facet normal -0.300706 -0.953717 0
    outer loop
      vertex -2.06339 -4.07224 1
      vertex -2.46747 -3.94484 1
      vertex -2.06339 -4.07224 2.73185e-16
    endloop
  endfacet
  facet normal -0.300706 -0.953717 0
    outer loop
      vertex -2.06339 -4.07224 2.73185e-16
      vertex -2.46747 -3.94484 1
      vertex -2.46747 -3.94484 2.73185e-16
    endloop
  endfacet
  facet normal -0.382683 -0.92388 0
    outer loop
      vertex -2.46747 -3.94484 1
      vertex -2.85891 -3.7827 1
      vertex -2.46747 -3.94484 2.73185e-16
    endloop
  endfacet
  facet normal -0.382683 -0.92388 0
    outer loop
      vertex -2.46747 -3.94484 2.73185e-16
      vertex -2.85891 -3.7827 1
      vertex -2.85891 -3.7827 2.73185e-16
    endloop
  endfacet
  facet normal -0.461749 -0.887011 0
    outer loop
      vertex -2.85891 -3.7827 1
      vertex -3.23472 -3.58706 1
      vertex -2.85891 -3.7827 2.73185e-16
    endloop
  endfacet
  facet normal -0.461749 -0.887011 0
    outer loop
      vertex -2.85891 -3.7827 2.73185e-16
      vertex -3.23472 -3.58706 1
      vertex -3.23472 -3.58706 2.73185e-16
    endloop
  endfacet
  facet normal -0.537299 -0.843392 0
    outer loop
      vertex -3.23472 -3.58706 1
      vertex -3.59206 -3.35941 1
      vertex -3.23472 -3.58706 2.73185e-16
    endloop
  endfacet
  facet normal -0.537299 -0.843392 0
    outer loop
      vertex -3.23472 -3.58706 2.73185e-16
      vertex -3.59206 -3.35941 1
      vertex -3.59206 -3.35941 2.73185e-16
    endloop
  endfacet
  facet normal -0.608762 -0.793353 0
    outer loop
      vertex -3.59206 -3.35941 1
      vertex -3.92819 -3.10149 1
      vertex -3.59206 -3.35941 2.73185e-16
    endloop
  endfacet
  facet normal -0.608762 -0.793353 0
    outer loop
      vertex -3.59206 -3.35941 2.73185e-16
      vertex -3.92819 -3.10149 1
      vertex -3.92819 -3.10149 2.73185e-16
    endloop
  endfacet
  facet normal -0.67559 -0.737277 0
    outer loop
      vertex -3.92819 -3.10149 1
      vertex -4.24057 -2.81525 1
      vertex -3.92819 -3.10149 2.73185e-16
    endloop
  endfacet
  facet normal -0.67559 -0.737277 0
    outer loop
      vertex -3.92819 -3.10149 2.73185e-16
      vertex -4.24057 -2.81525 1
      vertex -4.24057 -2.81525 2.73185e-16
    endloop
  endfacet
  facet normal -0.737277 -0.67559 0
    outer loop
      vertex -4.24057 -2.81525 1
      vertex -4.52681 -2.50287 1
      vertex -4.24057 -2.81525 2.73185e-16
    endloop
  endfacet
  facet normal -0.737277 -0.67559 0
    outer loop
      vertex -4.24057 -2.81525 2.73185e-16
      vertex -4.52681 -2.50287 1
      vertex -4.52681 -2.50287 2.73185e-16
    endloop
  endfacet
  facet normal -0.793353 -0.608761 0
    outer loop
      vertex -4.52681 -2.50287 1
      vertex -4.78473 -2.16673 1
      vertex -4.52681 -2.50287 2.73185e-16
    endloop
  endfacet
  facet normal -0.793353 -0.608761 0
    outer loop
      vertex -4.52681 -2.50287 2.73185e-16
      vertex -4.78473 -2.16673 1
      vertex -4.78473 -2.16673 2.73185e-16
    endloop
  endfacet
  facet normal -0.843391 -0.5373 0
    outer loop
      vertex -4.78473 -2.16673 1
      vertex -5.01238 -1.8094 1
      vertex -4.78473 -2.16673 2.73185e-16
    endloop
  endfacet
  facet normal -0.843391 -0.5373 0
    outer loop
      vertex -4.78473 -2.16673 2.73185e-16
      vertex -5.01238 -1.8094 1
      vertex -5.01238 -1.8094 2.73185e-16
    endloop
  endfacet
  facet normal -0.887011 -0.461748 0
    outer loop
      vertex -5.01238 -1.8094 1
      vertex -5.20802 -1.43358 1
      vertex -5.01238 -1.8094 2.73185e-16
    endloop
  endfacet
  facet normal -0.887011 -0.461748 0
    outer loop
      vertex -5.01238 -1.8094 2.73185e-16
      vertex -5.20802 -1.43358 1
      vertex -5.20802 -1.43358 2.73185e-16
    endloop
  endfacet
  facet normal -0.92388 -0.382683 0
    outer loop
      vertex -5.20802 -1.43358 1
      vertex -5.37016 -1.04214 1
      vertex -5.20802 -1.43358 2.73185e-16
    endloop
  endfacet
  facet normal -0.92388 -0.382683 0
    outer loop
      vertex -5.20802 -1.43358 2.73185e-16
      vertex -5.37016 -1.04214 1
      vertex -5.37016 -1.04214 2.73185e-16
    endloop
  endfacet
  facet normal -0.953717 -0.300707 0
    outer loop
      vertex -5.37016 -1.04214 1
      vertex -5.49757 -0.638064 1
      vertex -5.37016 -1.04214 2.73185e-16
    endloop
  endfacet
  facet normal -0.953717 -0.300707 0
    outer loop
      vertex -5.37016 -1.04214 2.73185e-16
      vertex -5.49757 -0.638064 1
      vertex -5.49757 -0.638064 2.73185e-16
    endloop
  endfacet
  facet normal -0.976296 -0.21644 0
    outer loop
      vertex -5.49757 -0.638064 1
      vertex -5.58927 -0.224418 1
      vertex -5.49757 -0.638064 2.73185e-16
    endloop
  endfacet
  facet normal -0.976296 -0.21644 0
    outer loop
      vertex -5.49757 -0.638064 2.73185e-16
      vertex -5.58927 -0.224418 1
      vertex -5.58927 -0.224418 2.73185e-16
    endloop
  endfacet
  facet normal -0.991445 -0.130525 0
    outer loop
      vertex -5.58927 -0.224418 1
      vertex -5.64457 0.195646 1
      vertex -5.58927 -0.224418 2.73185e-16
    endloop
  endfacet
  facet normal -0.991445 -0.130525 0
    outer loop
      vertex -5.58927 -0.224418 2.73185e-16
      vertex -5.64457 0.195646 1
      vertex -5.64457 0.195646 2.73185e-16
    endloop
  endfacet
  facet normal -0.999048 -0.0436192 0
    outer loop
      vertex -5.64457 0.195646 1
      vertex -5.66305 0.618932 1
      vertex -5.64457 0.195646 2.73185e-16
    endloop
  endfacet
  facet normal -0.999048 -0.0436192 0
    outer loop
      vertex -5.64457 0.195646 2.73185e-16
      vertex -5.66305 0.618932 1
      vertex -5.66305 0.618932 2.73185e-16
    endloop
  endfacet
  facet normal -0.999048 0.0436192 0
    outer loop
      vertex -5.66305 0.618932 1
      vertex -5.64457 1.04222 1
      vertex -5.66305 0.618932 2.73185e-16
    endloop
  endfacet
  facet normal 0 0 1
    outer loop
      vertex 3.97648 -0.224418 1
      vertex 4.03179 0.195646 1
      vertex -0.806392 0.618932 1
    endloop
  endfacet
  facet normal 0 0 1
    outer loop
      vertex 4.03179 0.195646 1
      vertex 4.05027 0.618932 1
      vertex -0.806392 0.618932 1
    endloop
  endfacet
  facet normal 0 0 1
    outer loop
      vertex -0.806392 0.618932 1
      vertex 4.05027 0.618932 1
      vertex 4.03179 1.04222 1
    endloop
  endfacet
  facet normal 0 0 1
    outer loop
      vertex 3.59524 -1.43358 1
      vertex 3.75738 -1.04214 1
      vertex -0.806392 0.618932 1
    endloop
  endfacet
  facet normal 0 0 1
    outer loop
      vertex 3.75738 -1.04214 1
      vertex 3.88478 -0.638064 1
      vertex -0.806392 0.618932 1
    endloop
  endfacet
  facet normal 0 0 1
    outer loop
      vertex -0.806392 0.618932 1
      vertex 3.88478 -0.638064 1
      vertex 3.97648 -0.224418 1
    endloop
  endfacet
  facet normal 0 0 1
    outer loop
      vertex 2.91403 -2.50287 1
      vertex 3.17195 -2.16673 1
      vertex -0.806392 0.618932 1
    endloop
  endfacet
  facet normal 0 0 1
    outer loop
      vertex 3.17195 -2.16673 1
      vertex 3.3996 -1.8094 1
      vertex -0.806392 0.618932 1
    endloop
  endfacet
  facet normal 0 0 1
    outer loop
      vertex -0.806392 0.618932 1
      vertex 3.3996 -1.8094 1
      vertex 3.59524 -1.43358 1
    endloop
  endfacet
  facet normal 0 0 1
    outer loop
      vertex 1.97927 -3.35941 1
      vertex 2.31541 -3.10149 1
      vertex -0.806392 0.618932 1
    endloop
  endfacet
  facet normal 0 0 1
    outer loop
      vertex 2.31541 -3.10149 1
      vertex 2.62779 -2.81525 1
      vertex -0.806392 0.618932 1
    endloop
  endfacet
  facet normal 0 0 1
    outer loop
      vertex -0.806392 0.618932 1
      vertex 2.62779 -2.81525 1
      vertex 2.91403 -2.50287 1
    endloop
  endfacet
  facet normal 0 0 1
    outer loop
      vertex 0.854684 -3.94484 1
      vertex 1.24612 -3.7827 1
      vertex -0.806392 0.618932 1
    endloop
  endfacet
  facet normal 0 0 1
    outer loop
      vertex 1.24612 -3.7827 1
      vertex 1.62194 -3.58706 1
      vertex -0.806392 0.618932 1
    endloop
  endfacet
  facet normal 0 0 1
    outer loop
      vertex -0.806392 0.618932 1
      vertex 1.62194 -3.58706 1
      vertex 1.97927 -3.35941 1
    endloop
  endfacet
  facet normal 0 0 1
    outer loop
      vertex -0.383106 -4.21925 1
      vertex 0.0369582 -4.16394 1
      vertex -0.806392 0.618932 1
    endloop
  endfacet
  facet normal 0 0 1
    outer loop
      vertex 0.0369582 -4.16394 1
      vertex 0.450604 -4.07224 1
      vertex -0.806392 0.618932 1
    endloop
  endfacet
  facet normal 0 0 1
    outer loop
      vertex -0.806392 0.618932 1
      vertex 0.450604 -4.07224 1
      vertex 0.854684 -3.94484 1
    endloop
  endfacet
  facet normal 0 0 1
    outer loop
      vertex -1.64974 -4.16394 1
      vertex -1.22968 -4.21925 1
      vertex -0.806392 0.618932 1
    endloop
  endfacet
  facet normal 0 0 1
    outer loop
      vertex -1.22968 -4.21925 1
      vertex -0.806392 -4.23773 1
      vertex -0.806392 0.618932 1
    endloop
  endfacet
  facet normal 0 0 1
    outer loop
      vertex -0.806392 0.618932 1
      vertex -0.806392 -4.23773 1
      vertex -0.383106 -4.21925 1
    endloop
  endfacet
  facet normal 0 0 1
    outer loop
      vertex -2.85891 -3.7827 1
      vertex -2.46747 -3.94484 1
      vertex -0.806392 0.618932 1
    endloop
  endfacet
  facet normal 0 0 1
    outer loop
      vertex -2.46747 -3.94484 1
      vertex -2.06339 -4.07224 1
      vertex -0.806392 0.618932 1
    endloop
  endfacet
  facet normal 0 0 1
    outer loop
      vertex -0.806392 0.618932 1
      vertex -2.06339 -4.07224 1
      vertex -1.64974 -4.16394 1
    endloop
  endfacet
  facet normal 0 0 1
    outer loop
      vertex -3.92819 -3.10149 1
      vertex -3.59206 -3.35941 1
      vertex -0.806392 0.618932 1
    endloop
  endfacet
  facet normal 0 0 1
    outer loop
      vertex -3.59206 -3.35941 1
      vertex -3.23472 -3.58706 1
      vertex -0.806392 0.618932 1
    endloop
  endfacet
  facet normal 0 0 1
    outer loop
      vertex -0.806392 0.618932 1
      vertex -3.23472 -3.58706 1
      vertex -2.85891 -3.7827 1
    endloop
  endfacet
  facet normal 0 0 1
    outer loop
      vertex -4.78473 -2.16673 1
      vertex -4.52681 -2.50287 1
      vertex -0.806392 0.618932 1
    endloop
  endfacet
  facet normal 0 0 1
    outer loop
      vertex -4.52681 -2.50287 1
      vertex -4.24057 -2.81525 1
      vertex -0.806392 0.618932 1
    endloop
  endfacet
  facet normal 0 0 1
    outer loop
      vertex -0.806392 0.618932 1
      vertex -4.24057 -2.81525 1
      vertex -3.92819 -3.10149 1
    endloop
  endfacet
  facet normal 0 0 1
    outer loop
      vertex -5.37016 -1.04214 1
      vertex -5.20802 -1.43358 1
      vertex -0.806392 0.618932 1
    endloop
  endfacet
  facet normal 0 0 1
    outer loop
      vertex -5.20802 -1.43358 1
      vertex -5.01238 -1.8094 1
      vertex -0.806392 0.618932 1
    endloop
  endfacet
  facet normal 0 0 1
    outer loop
      vertex -0.806392 0.618932 1
      vertex -5.01238 -1.8094 1
      vertex -4.78473 -2.16673 1
    endloop
  endfacet
  facet normal 0 0 1
    outer loop
      vertex -5.64457 0.195646 1
      vertex -5.58927 -0.224418 1
      vertex -0.806392 0.618932 1
    endloop
  endfacet
  facet normal 0 0 1
    outer loop
      vertex -5.58927 -0.224418 1
      vertex -5.49757 -0.638064 1
      vertex -0.806392 0.618932 1
    endloop
  endfacet
  facet normal 0 0 1
    outer loop
      vertex -0.806392 0.618932 1
      vertex -5.49757 -0.638064 1
      vertex -5.37016 -1.04214 1
    endloop
  endfacet
  facet normal 0 0 1
    outer loop
      vertex -5.58927 1.46228 1
      vertex -5.64457 1.04222 1
      vertex -0.806392 0.618932 1
    endloop
  endfacet
  facet normal 0 0 1
    outer loop
      vertex -5.64457 1.04222 1
      vertex -5.66305 0.618932 1
      vertex -0.806392 0.618932 1
    endloop
  endfacet
  facet normal 0 0 1
    outer loop
      vertex -0.806392 0.618932 1
      vertex -5.66305 0.618932 1
      vertex -5.64457 0.195646 1
    endloop
  endfacet
  facet normal 0 0 1
    outer loop
      vertex -5.20802 2.67144 1
      vertex -5.37016 2.28001 1
      vertex -0.806392 0.618932 1
    endloop
  endfacet
  facet normal 0 0 1
    outer loop
      vertex -5.37016 2.28001 1
      vertex -5.49757 1.87593 1
      vertex -0.806392 0.618932 1
    endloop
  endfacet
  facet normal 0 0 1
    outer loop
      vertex -0.806392 0.618932 1
      vertex -5.49757 1.87593 1
      vertex -5.58927 1.46228 1
    endloop
  endfacet
  facet normal 0 0 1
    outer loop
      vertex -4.52681 3.74073 1
      vertex -4.78473 3.4046 1
      vertex -0.806392 0.618932 1
    endloop
  endfacet
  facet normal 0 0 1
    outer loop
      vertex -4.78473 3.4046 1
      vertex -5.01238 3.04726 1
      vertex -0.806392 0.618932 1
    endloop
  endfacet
  facet normal 0 0 1
    outer loop
      vertex -0.806392 0.618932 1
      vertex -5.01238 3.04726 1
      vertex -5.20802 2.67144 1
    endloop
  endfacet
  facet normal 0 0 1
    outer loop
      vertex -3.59206 4.59727 1
      vertex -3.92819 4.33935 1
      vertex -0.806392 0.618932 1
    endloop
  endfacet
  facet normal 0 0 1
    outer loop
      vertex -3.92819 4.33935 1
      vertex -4.24057 4.05311 1
      vertex -0.806392 0.618932 1
    endloop
  endfacet
  facet normal 0 0 1
    outer loop
      vertex -0.806392 0.618932 1
      vertex -4.24057 4.05311 1
      vertex -4.52681 3.74073 1
    endloop
  endfacet
  facet normal 0 0 1
    outer loop
      vertex -2.46747 5.1827 1
      vertex -2.85891 5.02056 1
      vertex -0.806392 0.618932 1
    endloop
  endfacet
  facet normal 0 0 1
    outer loop
      vertex -2.85891 5.02056 1
      vertex -3.23472 4.82492 1
      vertex -0.806392 0.618932 1
    endloop
  endfacet
  facet normal 0 0 1
    outer loop
      vertex -0.806392 0.618932 1
      vertex -3.23472 4.82492 1
      vertex -3.59206 4.59727 1
    endloop
  endfacet
  facet normal 0 0 1
    outer loop
      vertex -1.22968 5.45711 1
      vertex -1.64974 5.40181 1
      vertex -0.806392 0.618932 1
    endloop
  endfacet
  facet normal 0 0 1
    outer loop
      vertex -1.64974 5.40181 1
      vertex -2.06339 5.31011 1
      vertex -0.806392 0.618932 1
    endloop
  endfacet
  facet normal 0 0 1
    outer loop
      vertex -0.806392 0.618932 1
      vertex -2.06339 5.31011 1
      vertex -2.46747 5.1827 1
    endloop
  endfacet
  facet normal 0 0 1
    outer loop
      vertex 0.0369582 5.40181 1
      vertex -0.383106 5.45711 1
      vertex -0.806392 0.618932 1
    endloop
  endfacet
  facet normal 0 0 1
    outer loop
      vertex -0.383106 5.45711 1
      vertex -0.806392 5.47559 1
      vertex -0.806392 0.618932 1
    endloop
  endfacet
  facet normal 0 0 1
    outer loop
      vertex -0.806392 0.618932 1
      vertex -0.806392 5.47559 1
      vertex -1.22968 5.45711 1
    endloop
  endfacet
  facet normal 0 0 1
    outer loop
      vertex 1.24612 5.02056 1
      vertex 0.854684 5.1827 1
      vertex -0.806392 0.618932 1
    endloop
  endfacet
  facet normal 0 0 1
    outer loop
      vertex 0.854684 5.1827 1
      vertex 0.450604 5.31011 1
      vertex -0.806392 0.618932 1
    endloop
  endfacet
  facet normal 0 0 1
    outer loop
      vertex -0.806392 0.618932 1
      vertex 0.450604 5.31011 1
      vertex 0.0369582 5.40181 1
    endloop
  endfacet
  facet normal 0 0 1
    outer loop
      vertex 2.31541 4.33935 1
      vertex 1.97927 4.59727 1
      vertex -0.806392 0.618932 1
    endloop
  endfacet
  facet normal 0 0 1
    outer loop
      vertex 1.97927 4.59727 1
      vertex 1.62194 4.82492 1
      vertex -0.806392 0.618932 1
    endloop
  endfacet
  facet normal 0 0 1
    outer loop
      vertex -0.806392 0.618932 1
      vertex 1.62194 4.82492 1
      vertex 1.24612 5.02056 1
    endloop
  endfacet
  facet normal 0 0 1
    outer loop
      vertex 3.17195 3.4046 1
      vertex 2.91403 3.74073 1
      vertex -0.806392 0.618932 1
    endloop
  endfacet
  facet normal 0 0 1
    outer loop
      vertex 2.91403 3.74073 1
      vertex 2.62779 4.05311 1
      vertex -0.806392 0.618932 1
    endloop
  endfacet
  facet normal 0 0 1
    outer loop
      vertex -0.806392 0.618932 1
      vertex 2.62779 4.05311 1
      vertex 2.31541 4.33935 1
    endloop
  endfacet
  facet normal 0 0 1
    outer loop
      vertex 3.75738 2.28001 1
      vertex 3.59524 2.67144 1
      vertex -0.806392 0.618932 1
    endloop
  endfacet
  facet normal 0 0 1
    outer loop
      vertex 3.59524 2.67144 1
      vertex 3.3996 3.04726 1
      vertex -0.806392 0.618932 1
    endloop
  endfacet
  facet normal 0 0 1
    outer loop
      vertex -0.806392 0.618932 1
      vertex 3.3996 3.04726 1
      vertex 3.17195 3.4046 1
    endloop
  endfacet
  facet normal 0 0 1
    outer loop
      vertex 4.03179 1.04222 1
      vertex 3.97648 1.46228 1
      vertex -0.806392 0.618932 1
    endloop
  endfacet
  facet normal 0 0 1
    outer loop
      vertex 3.97648 1.46228 1
      vertex 3.88478 1.87593 1
      vertex -0.806392 0.618932 1
    endloop
  endfacet
  facet normal 0 0 1
    outer loop
      vertex -0.806392 0.618932 1
      vertex 3.88478 1.87593 1
      vertex 3.75738 2.28001 1
    endloop
  endfacet
endsolid Onshape
